<svg width="32" height="32" viewBox="0 0 32 32" fill="none" xmlns="http://www.w3.org/2000/svg">
  <path d="M16 28C16 28 3 20 3 11.5C3 8.5 5 6 8 6C12 6 16 10 16 10C16 10 20 6 24 6C27 6 29 8.5 29 11.5C29 20 16 28 16 28Z" fill="#FF6B6B"/>
  <path d="M16 28C16 28 3 20 3 11.5C3 8.5 5 6 8 6C12 6 16 10 16 10C16 10 20 6 24 6C27 6 29 8.5 29 11.5C29 20 16 28 16 28Z" fill="#FF6B6B"/>
  <path d="M16 28C16 28 3 20 3 11.5C3 8.5 5 6 8 6C12 6 16 10 16 10C16 10 20 6 24 6C27 6 29 8.5 29 11.5C29 20 16 28 16 28Z" stroke="#FF4F4F" stroke-width="2" stroke-linecap="round" stroke-linejoin="round"/>
</svg> 